<svg t="1728168394021" class="icon" viewBox="0 0 1024 1024" version="1.1" xmlns="http://www.w3.org/2000/svg" p-id="83298" width="256" height="256"><path d="M205.568 310.9888a16.0768 16.0768 0 0 1 3.584-10.752 13.4144 13.4144 0 0 1 9.216-4.608h117.76a12.3904 12.3904 0 0 1 9.216 4.608 16.0768 16.0768 0 0 1 3.584 10.752v504.832h-143.36z" fill="#4697EC" p-id="83299"></path><path d="M594.176 521.4208a16.0768 16.0768 0 0 1 3.584-10.752 13.4144 13.4144 0 0 1 9.216-4.608h117.76a12.3904 12.3904 0 0 1 9.216 4.608 16.0768 16.0768 0 0 1 3.584 10.752v293.888h-143.36v-293.888z" fill="#B2D5F6" p-id="83300"></path><path d="M788.736 732.16a16.0768 16.0768 0 0 1 3.584-10.752 13.4144 13.4144 0 0 1 9.216-4.608h117.76a12.3904 12.3904 0 0 1 9.216 4.608 16.0768 16.0768 0 0 1 3.584 10.752v82.944h-143.36V732.16z" fill="#4697EC" p-id="83301"></path><path d="M154.368 870.0928V152.2688a10.24 10.24 0 0 0-10.24-10.24h-51.2a10.24 10.24 0 0 0-10.24 10.24v748.544a40.96 40.96 0 0 0 40.96 40.96h799.744a10.24 10.24 0 0 0 10.24-10.24v-51.2a10.24 10.24 0 0 0-10.24-10.24z" fill="#1890FF" p-id="83302"></path><path d="M462.592 218.3168a153.2416 153.2416 0 0 1 45.056-108.544h-94.72a12.8 12.8 0 0 0-9.216 4.096 14.7456 14.7456 0 0 0-3.584 10.24v691.2h143.36V353.28a153.1904 153.1904 0 0 1-80.896-134.9632z" fill="#FA9415" p-id="83303"></path><path d="M743.5776 417.6896H542.72a185.4976 185.4976 0 0 1-186.2144-184.32 185.4976 185.4976 0 0 1 186.2144-184.32h201.0624a184.32 184.32 0 1 1 0 368.64z" fill="#FFFFFF" p-id="83304"></path><path d="M542.72 69.5296a163.84 163.84 0 1 0 0 327.68h201.0624a163.84 163.84 0 1 0 0-327.68z" fill="#FA9415" p-id="83305"></path><path d="M551.9872 146.9952c38.7072 0 58.3168 16.4352 58.3168 49.3568s-19.6096 49.7664-58.7776 49.7664h-39.8848v61.7472h-26.368V146.9952z m-40.3456 76.8h38.2976a43.1616 43.1616 0 0 0 25.6-6.2976 25.2416 25.2416 0 0 0 8.1408-21.1456 23.9616 23.9616 0 0 0-8.3456-20.48c-5.12-4.3008-13.9776-6.2976-25.6-6.2976h-38.0928zM700.2112 191.1296v25.6a55.9104 55.9104 0 0 0-16.6912-2.4576 24.7808 24.7808 0 0 0-18.2272 7.8848 31.1296 31.1296 0 0 0-9.2672 23.8592v61.8496h-25.6V191.3856h25.6v16.64a40.0896 40.0896 0 0 1 11.0592-13.4656 28.0064 28.0064 0 0 1 18.4832-6.2976 33.2288 33.2288 0 0 1 14.6432 2.8672zM811.4688 205.568a62.464 62.464 0 0 1 16.0256 44.1856 62.3616 62.3616 0 0 1-15.7696 43.6736 60.928 60.928 0 0 1-85.6064 0 61.44 61.44 0 0 1-15.8208-43.6736 61.44 61.44 0 0 1 16.0256-44.1856 54.4256 54.4256 0 0 1 42.5984-17.3568 54.9376 54.9376 0 0 1 42.5472 17.3568z m-67.328 16.2304a48.5376 48.5376 0 0 0-7.4752 27.9552 47.8208 47.8208 0 0 0 7.4752 27.6992 28.3136 28.3136 0 0 0 24.7808 12.5952 28.7744 28.7744 0 0 0 24.6784-12.5952 49.2544 49.2544 0 0 0 7.6288-27.6992 48.9472 48.9472 0 0 0-7.6288-27.9552 28.3136 28.3136 0 0 0-24.7808-12.6464 27.904 27.904 0 0 0-24.6784 12.6464z" fill="#FFFFFF" p-id="83306"></path></svg>
